Coordinates
version=1
nRows=29
nColumns=18
inDegrees=yes

Units are S.I. units (second, meters, Newtons, ...)
If the header above contains a line with 'inDegrees', this indicates whether rotational values are in degrees (yes) or radians (no).

endheader
time	ground_thorax_rot_x	ground_thorax_rot_y	ground_thorax_rot_z	ground_thorax_tx	ground_thorax_ty	ground_thorax_tz	clav_prot	clav_elev	scapula_abduction	scapula_elevation	scapula_upward_rot	scapula_winging	plane_elv	shoulder_elv	axial_rot	elbow_flexion	pro_sup
      1.00000000	      0.51728761	     -7.01194637	    -11.60992371	     -0.03336945	      0.00383274	      0.01972487	    -18.79505554	    -21.86132661	    -16.89654187	    -15.95890158	      9.57519197	     24.28812819	    -26.00000000	     39.99312490	     39.20700233	     25.30275545	   -169.22304621
      1.02000000	      0.51728761	     -7.06542183	    -11.31956613	     -0.03455725	      0.00478584	      0.01976205	    -18.93643794	    -21.49960010	    -16.70037727	    -15.89369447	     10.41432693	     23.91519654	    -26.00000000	     40.86564185	     38.80999764	     25.48808965	   -169.14168080
      1.04000000	      0.51728761	     -7.14785549	    -11.03937463	     -0.03572709	      0.00580155	      0.01982895	    -19.05083781	    -21.13318316	    -16.40688997	    -15.83915961	     11.32053771	     23.52022047	    -26.00000000	     41.77030843	     38.20037719	     25.63836531	   -169.03502166
      1.06000000	      0.51728761	     -7.26966379	    -10.75151410	     -0.03688452	      0.00688428	      0.01991135	    -19.12900512	    -20.76126116	    -16.01264636	    -15.78867187	     12.27258407	     23.10501775	    -26.00000000	     42.70986447	     37.31972792	     25.73692316	   -168.85919692
      1.08000000	      0.51728761	     -7.19657573	    -10.41240485	     -0.03811269	      0.00812959	      0.01996229	    -19.41513409	    -20.46540272	    -15.95934998	    -15.80442547	     13.21741286	     22.78715482	    -26.00000000	     43.67751508	     37.08927958	     25.82997134	   -168.78945712
      1.10000000	      0.51728761	     -7.21001131	     -9.98545874	     -0.03942330	      0.00923312	      0.02004214	    -19.57724410	    -19.91408895	    -15.63992308	    -15.65762729	     14.32796644	     22.24156153	    -26.00000000	     44.49923177	     36.13807707	     25.98016512	   -168.67683406
      1.12000000	      0.51728761	     -7.39227598	     -9.67538976	     -0.04053321	      0.01043438	      0.02017880	    -19.59232595	    -19.47562972	    -15.00091430	    -15.59193847	     15.45997753	     21.73651080	    -26.00000000	     45.44856607	     34.58822418	     25.98922150	   -168.38833544
      1.14000000	      0.51728761	     -7.35251323	     -9.21685326	     -0.04186910	      0.01172061	      0.02020706	    -19.77133305	    -18.97399434	    -14.65989703	    -15.48537921	     16.59061598	     21.22610487	    -26.00000000	     46.35701332	     33.65452328	     25.99402361	   -168.17222862
      1.16000000	      0.51728761	     -7.47647917	     -8.86170330	     -0.04294527	      0.01303702	      0.02036963	    -19.84870662	    -18.50519654	    -14.05384253	    -15.41612907	     17.80874575	     20.70199447	    -26.00000000	     47.28591938	     32.21350561	     26.00206057	   -167.84031273
      1.18000000	      0.51728761	     -7.48783083	     -8.41290466	     -0.04416005	      0.01440577	      0.02046702	    -19.98339493	    -17.95085934	    -13.53064949	    -15.29311744	     19.06852060	     20.12909186	    -26.00000000	     48.14597940	     30.97964053	     25.95127615	   -167.56178685
      1.20000000	      0.51728761	     -7.52798917	     -7.96497441	     -0.04535265	      0.01579314	      0.02057623	    -20.08066740	    -17.37557907	    -12.90483100	    -15.15852185	     20.36613517	     19.53221782	    -26.00000000	     49.01440173	     29.64041605	     25.87651967	   -167.26807509
      1.22000000	      0.51728761	     -7.53759217	     -7.47688615	     -0.04657799	      0.01723174	      0.02068347	    -20.19633251	    -16.74690382	    -12.27159878	    -14.99440872	     21.71709670	     18.90043559	    -26.00000000	     49.82690652	     28.40448340	     25.76963691	   -167.03430045
      1.24000000	      0.51728761	     -7.55612021	     -6.98832734	     -0.04777124	      0.01866450	      0.02080305	    -20.28368558	    -16.08186122	    -11.55794187	    -14.80600260	     23.10005793	     18.24130006	    -26.00000000	     50.62554136	     27.16080418	     25.63291618	   -166.82318177
      1.26000000	      0.51728761	     -7.60789339	     -6.50305716	     -0.04895737	      0.02013351	      0.02095797	    -20.34066675	    -15.40239153	    -10.75748258	    -14.60740715	     24.50859389	     17.57063551	    -26.00000000	     51.42241860	     25.91842321	     25.47757811	   -166.61529714
      1.28000000	      0.51728761	     -7.72590995	     -6.04695328	     -0.05005081	      0.02164263	      0.02115658	    -20.31240405	    -14.75884942	     -9.84481382	    -14.40982326	     25.83289643	     16.93051440	    -26.00000000	     52.32434617	     24.45616131	     25.35712960	   -166.21273457
      1.30000000	      0.51728761	     -7.81327180	     -5.57162817	     -0.05116405	      0.02312945	      0.02137737	    -20.34790546	    -14.03364366	     -8.93738846	    -14.18100398	     27.30061313	     16.23616222	    -26.00000000	     53.05896337	     23.39222647	     25.18041331	   -166.06591652
      1.32000000	      0.51728761	     -7.90562031	     -5.09014354	     -0.05230108	      0.02463279	      0.02161231	    -20.35278763	    -13.28898977	     -7.99301456	    -13.92507376	     28.73093251	     15.54417210	    -26.00000000	     53.81133141	     22.37947396	     25.00382052	   -165.95352992
      1.34000000	      0.51728761	     -8.03187853	     -4.61509554	     -0.05340269	      0.02611820	      0.02187186	    -20.32893116	    -12.54006941	     -6.99242078	    -13.65739897	     30.14709545	     14.85995719	    -26.00000000	     54.56200509	     21.42510868	     24.83099107	   -165.86667335
      1.36000000	      0.51728761	     -8.17683228	     -4.14057052	     -0.05449099	      0.02759958	      0.02214957	    -20.27692529	    -11.78620630	     -5.96286150	    -13.37218187	     31.51886192	     14.18986495	    -26.00000000	     55.32346259	     20.52984938	     24.66941202	   -165.79541103
      1.38000000	      0.51728761	     -8.29495020	     -3.67103625	     -0.05556230	      0.02905260	      0.02245159	    -20.27246110	    -11.00134067	     -4.98064314	    -13.06842402	     32.92524381	     13.51955807	    -26.00000000	     55.99476730	     19.88983351	     24.52342423	   -165.78503820
      1.40000000	      0.51728761	     -8.51130823	     -3.21815031	     -0.05659269	      0.03055250	      0.02275788	    -20.15443534	    -10.28366211	     -3.86908552	    -12.77981480	     34.20459855	     12.90185309	    -26.00000000	     56.77496687	     19.10560269	     24.35070500	   -165.76612819
      1.42000000	      0.51728761	     -8.66825345	     -2.77150995	     -0.05760645	      0.03200456	      0.02307391	    -20.11123946	     -9.54818885	     -2.87135932	    -12.47916926	     35.49576881	     12.29997729	    -26.00000000	     57.45790654	     18.57590050	     24.21205998	   -165.77343447
      1.44000000	      0.51728761	     -8.81341018	     -2.30237758	     -0.05863729	      0.03343070	      0.02336570	    -20.06843217	     -8.78930666	     -1.90636463	    -12.15044251	     36.74149279	     11.70993055	    -26.00000000	     58.09549549	     18.14285209	     24.07859596	   -165.79010049
      1.46000000	      0.51728761	     -9.03935825	     -1.88476186	     -0.05955415	      0.03483431	      0.02365753	    -19.96460971	     -8.08923887	     -0.86924975	    -11.84326631	     37.91156260	     11.16492816	    -26.00000000	     58.76795614	     17.69183988	     23.95648527	   -165.80512067
      1.48000000	      0.51728761	     -9.23282571	     -1.45139391	     -0.06046405	      0.03621759	      0.02391192	    -19.88447386	     -7.40021138	      0.08494780	    -11.53125981	     39.01980863	     10.65325787	    -26.00000000	     59.40392856	     17.33098695	     23.85556655	   -165.81932182
      1.50000000	      0.51728761	     -9.26963029	     -1.02831049	     -0.06139632	      0.03763351	      0.02406652	    -19.91216198	     -6.77462884	      0.80637209	    -11.25217864	     40.05479389	     10.21311578	    -26.00000000	     60.02450572	     17.12744961	     23.77617760	   -165.81881035
      1.52000000	      0.51728761	     -9.67845721	     -0.62410259	     -0.06213628	      0.03891013	      0.02431901	    -19.64936853	     -6.13126211	      1.97497825	    -10.93418063	     41.00043157	      9.74154565	    -26.00000000	     60.66623417	     16.71484362	     23.65606522	   -165.84608625
      1.54000000	      0.51728761	     -9.74625231	     -0.18366190	     -0.06298574	      0.04019033	      0.02442631	    -19.68126709	     -5.46813417	      2.63866205	    -10.61449346	     41.97155196	      9.32102632	    -26.00000000	     61.10916074	     16.59693717	     23.58118279	   -165.85869155
      1.56000000	      0.51728761	     -9.85868750	      0.21118227	     -0.06372318	      0.04140956	      0.02450794	    -19.67481492	     -4.85642654	      3.32900367	    -10.31578482	     42.87311098	      8.93740912	    -26.00000000	     61.55789923	     16.49507951	     23.48721400	   -165.86815248
